<svg width="640" height="180" viewBox="0 0 640 180" fill="none" xmlns="http://www.w3.org/2000/svg">
  <title>The University of Queensland Australia</title>
  <g>
    <rect x="0" y="10" width="118" height="160" rx="30" fill="#F4E0A6"/>
    <rect x="10" y="20" width="98" height="140" rx="24" fill="#E1C36A"/>
    <rect x="25" y="35" width="68" height="110" rx="20" fill="#3558A6"/>
    <path d="M34 56C45 56 52 46 59 38C66 46 73 56 84 56C73 63 66 73 59 82C52 73 45 63 34 56Z" fill="#E1C36A"/>
    <path d="M34 124C45 124 52 134 59 142C66 134 73 124 84 124C73 117 66 107 59 98C52 107 45 117 34 124Z" fill="#E1C36A"/>
    <path d="M44 71H74C80 71 85 76 85 82V97C85 103 80 108 74 108H44C38 108 33 103 33 97V82C33 76 38 71 44 71Z" fill="white"/>
    <path d="M46 73H72C76.4183 73 80 76.5817 80 81V98C80 102.418 76.4183 106 72 106H46C41.5817 106 38 102.418 38 98V81C38 76.5817 41.5817 73 46 73Z" stroke="#222222" stroke-width="2"/>
    <path d="M59 73V106" stroke="#222222" stroke-width="2"/>
    <path d="M18 135L0 151V170L22 156L18 135Z" fill="#3558A6"/>
    <path d="M100 135L118 151V170L96 156L100 135Z" fill="#3558A6"/>
  </g>
  <g fill="#1E1B20">
    <text x="148" y="72" font-size="44" font-family="Georgia, 'Times New Roman', serif" letter-spacing="1.4">
      THE UNIVERSITY
    </text>
    <text x="148" y="120" font-size="44" font-family="Georgia, 'Times New Roman', serif" letter-spacing="1.4">
      OF QUEENSLAND
    </text>
    <text x="150" y="160" font-size="18" font-family="Georgia, 'Times New Roman', serif" letter-spacing="12">
      AUSTRALIA
    </text>
  </g>
</svg>
